<svg width="33" height="34" viewBox="0 0 33 34" fill="none" xmlns="http://www.w3.org/2000/svg">
<path d="M30.0429 10.8227L20.0527 3.05235C19.176 2.3703 18.0969 2 16.9862 2C15.8754 2 14.7963 2.3703 13.9196 3.05235L3.9276 10.8227C3.32711 11.2897 2.84127 11.8877 2.5072 12.5711C2.17312 13.2545 1.99964 14.0052 2 14.7659V28.2535C2 29.2471 2.39472 30.2001 3.09734 30.9027C3.79995 31.6053 4.7529 32 5.74654 32H28.2258C29.2194 32 30.1724 31.6053 30.875 30.9027C31.5776 30.2001 31.9723 29.2471 31.9723 28.2535V14.7659C31.9723 13.2242 31.2605 11.7687 30.0429 10.8227Z" stroke="#0084FF" stroke-width="2.03584" stroke-linecap="round" stroke-linejoin="round"/>
<path d="M24.4229 22.6055C20.283 25.1025 13.5729 25.1025 9.43677 22.6055" stroke="#0084FF" stroke-width="2.03584" stroke-linecap="round" stroke-linejoin="round"/>
</svg>
