<svg width="28" height="29" viewBox="0 0 28 29" fill="none" xmlns="http://www.w3.org/2000/svg">
<path d="M18.4711 23.2353C18.4711 24.499 17.9691 25.7109 17.0756 26.6045C16.182 27.498 14.9701 28 13.7064 28C12.4428 28 11.2308 27.498 10.3373 26.6045C9.44373 25.7109 8.94173 24.499 8.94173 23.2353M14.8516 1.00479L12.5232 1.00003C7.21215 0.987322 2.6015 5.30255 2.56497 10.5294V16.5488C2.56497 17.8035 2.40615 19.0281 1.72162 20.0715L1.2658 20.7672C0.571739 21.8218 1.31821 23.2353 2.56497 23.2353H24.8479C26.0947 23.2353 26.8395 21.8218 26.1471 20.7672L25.6912 20.0715C25.0083 19.0281 24.8479 17.802 24.8479 16.5472V10.531C24.7844 5.30255 20.1626 1.0175 14.8516 1.00479V1.00479Z" stroke="#8A8A8A" stroke-width="1.87" stroke-linecap="round" stroke-linejoin="round"/>
</svg>
